<mxfile host="app.diagrams.net" modified="2024-09-09T03:40:51.274Z" agent="Mozilla/5.0 (Windows NT 10.0; Win64; x64) AppleWebKit/537.36 (KHTML, like Gecko) Chrome/127.0.0.0 Safari/537.36 Edg/127.0.0.0" etag="tVy3i1LiDUhcn5pOPnR8" version="24.4.4" type="github" pages="2">
  <diagram id="6a731a19-8d31-9384-78a2-239565b7b9f0" name="Page-1" />
  <diagram id="kxF-6bG0vD-OGPQEz8Fa" name="第 2 页">
    <mxGraphModel dx="1386" dy="791" grid="1" gridSize="10" guides="1" tooltips="1" connect="1" arrows="1" fold="1" page="1" pageScale="1" pageWidth="827" pageHeight="1169" math="0" shadow="0">
      <root>
        <mxCell id="0" />
        <mxCell id="1" parent="0" />
        <mxCell id="TmvDmhQx3JAfE-i-6h_T-1" value="" style="rounded=0;whiteSpace=wrap;html=1;fillColor=none;" vertex="1" parent="1">
          <mxGeometry x="90" y="190" width="520" height="410" as="geometry" />
        </mxCell>
        <mxCell id="TmvDmhQx3JAfE-i-6h_T-2" value="Di300多媒体主机平台" style="text;html=1;align=center;verticalAlign=middle;whiteSpace=wrap;rounded=0;" vertex="1" parent="1">
          <mxGeometry x="110" y="210" width="80" height="30" as="geometry" />
        </mxCell>
        <mxCell id="TmvDmhQx3JAfE-i-6h_T-3" value="" style="rounded=0;whiteSpace=wrap;html=1;fillColor=#b0e3e6;strokeColor=#0e8088;" vertex="1" parent="1">
          <mxGeometry x="110" y="350" width="170" height="160" as="geometry" />
        </mxCell>
        <mxCell id="TmvDmhQx3JAfE-i-6h_T-4" value="Android端" style="text;html=1;align=center;verticalAlign=middle;whiteSpace=wrap;rounded=0;" vertex="1" parent="1">
          <mxGeometry x="110" y="350" width="60" height="30" as="geometry" />
        </mxCell>
      </root>
    </mxGraphModel>
  </diagram>
</mxfile>
